<svg width="45" height="40" viewBox="0 0 45 40" fill="none" xmlns="http://www.w3.org/2000/svg">
<path d="M25.7138 2.56253L43.4395 33.2641C45.4121 36.6805 43.813 39.4502 39.8679 39.4502H4.41656C0.471426 39.4502 -1.1277 36.6805 0.844942 33.2641L18.5706 2.56253C20.5432 -0.854176 23.7412 -0.854176 25.7138 2.56253Z" fill="#FFF500"/>
<path d="M39.8678 38.0195H4.41644C3.04032 38.0195 2.05738 37.6296 1.64864 36.9219C1.24005 36.2141 1.39401 35.168 2.08207 33.9762L19.8077 3.27476C20.4959 2.0828 21.3249 1.42651 22.1421 1.42651C22.9593 1.42651 23.7881 2.0828 24.4763 3.27476L42.202 33.976C42.89 35.1678 43.0438 36.2138 42.6354 36.9217C42.2268 37.6296 41.2439 38.0195 39.8678 38.0195ZM22.1421 2.14084C21.6069 2.14084 20.9654 2.6982 20.4263 3.63192L2.70078 34.3333C2.16165 35.2669 1.99966 36.1011 2.26734 36.5647C2.53501 37.0283 3.33851 37.3053 4.41644 37.3053H39.8676C40.9455 37.3053 41.749 37.0283 42.0167 36.5647C42.2844 36.1012 42.1224 35.2671 41.5833 34.3333L23.8578 3.63192C23.3186 2.69836 22.6773 2.14084 22.1421 2.14084Z" fill="black"/>
<path d="M30.523 24.3933L29.9858 22.0005L27.7124 22.4968C27.4707 21.9547 27.1359 21.4509 26.7212 21.0029L27.9405 19.1169L25.8451 17.7992L24.6781 19.6042C23.9687 19.3236 23.223 19.1936 22.4849 19.2094L21.982 16.9668L19.5556 17.4966L20.0743 19.8076C19.627 20.0303 19.2087 20.3128 18.8302 20.6542L16.9175 19.4512L15.5814 21.5177L17.4116 22.6685C17.1271 23.3682 16.9952 24.1035 17.011 24.8315L15.0234 25.265L15.5603 27.6581L17.6178 27.209C17.9059 27.7721 18.2911 28.2907 18.7732 28.7364L17.6057 30.5417L19.7011 31.8594L20.9209 29.9732C21.6043 30.1856 22.3112 30.2614 23.0079 30.2104L23.5136 32.4664L25.9402 31.9366L25.3917 29.4912C25.8592 29.2261 26.2913 28.8921 26.6717 28.4919L28.5023 29.6433L29.8384 27.5768L27.9261 26.3744C28.0801 25.8924 28.1633 25.3989 28.1793 24.9046L30.523 24.3933ZM24.5189 25.9273C23.8434 26.9718 22.4326 27.2797 21.3737 26.6136C20.3148 25.9475 20.0024 24.5561 20.6778 23.5119C21.3533 22.4673 22.7641 22.1595 23.823 22.8256C24.8821 23.4914 25.1943 24.8828 24.5189 25.9273Z" fill="#130127"/>
</svg>
